# AST/ASF file generated using VICON BodyLanguage
# -----------------------------------------------
:version 1.10
:name VICON
:units
  mass 1.0
  length 0.45
  angle deg
:documentation
   .ast/.asf automatically generated from VICON data using
   VICON BodyBuilder and BodyLanguage model FoxedUp or BRILLIANT.MOD
:root
   order TX TY TZ RX RY RZ
   axis XYZ
   position 0 0 0  
   orientation 0 0 0 
:bonedata
  begin
     id 1 
     name lhipjoint
     direction 0.653368 -0.678499 0.335782 
     length 2.51848 
     axis 0 0 0  XYZ
  end
  begin
     id 2 
     name lfemur
     direction 0.34202 -0.939693 0  
     length 6.57749  
     axis 0 0 20  XYZ
    dof rx ry rz
    limits (-160.0 20.0)
           (-70.0 70.0)
           (-60.0 70.0)
  end
  begin
     id 3 
     name ltibia
     direction 0.34202 -0.939693 0   
     length 7.94618   
     axis 0 0 20   XYZ
    dof rx
    limits (-10.0 170.0)
  end
  begin
     id 4 
     name lfoot
     direction 0.0811271 -0.222895 0.971461   
     length 2.31339   
     axis -90 7.62852e-016 20   XYZ
    dof rx rz
    limits (-45.0 90.0)
           (-70.0 20.0)
  end
  begin
     id 5 
     name ltoes
     direction 1.53568e-011 -4.21885e-011 1   
     length 1.15935   
     axis -90 7.62852e-016 20   XYZ
    dof rx
    limits (-90.0 20.0)
  end
  begin
     id 6 
     name rhipjoint
     direction -0.640058 -0.688614 0.340788   
     length 2.48149  
     axis 0 0 0  XYZ 
  end
  begin
     id 7 
     name rfemur
     direction -0.34202 -0.939693 0   
     length 6.57875   
     axis 0 0 -20   XYZ
    dof rx ry rz
    limits (-160.0 20.0)
           (-70.0 70.0)
           (-70.0 60.0)
  end
  begin
     id 8 
     name rtibia
     direction -0.34202 -0.939693 0   
     length 7.977   
     axis 0 0 -20   XYZ
    dof rx
    limits (-10.0 170.0)
 end
 begin
     id 9 
     name rfoot
     direction -0.0979793 -0.269196 0.958089   
     length 2.19857  
     axis -90 -7.62852e-016 -20   XYZ
    dof rx rz
    limits (-45.0 90.0)
           (-20.0 70.0)
  end
  begin
     id 10 
     name rtoes
     direction -1.53556e-011 -4.21868e-011 1   
     length 1.09838   
     axis -90 -7.62852e-016 -20   XYZ
    dof rx
    limits (-90.0 20.0)
  end
  begin
     id 11 
     name lowerback
     direction 0.0149039 0.998517 -0.0523597   
     length 2.10809   
     axis 0 0 0   XYZ
    dof rx ry rz
    limits (-20.0 45.0)
           (-30.0 30.0)
           (-30.0 30.0)
  end
  begin
     id 12 
     name upperback
     direction -0.00882659 0.999418 -0.0329624   
     length 2.1102   
     axis 0 0 0   XYZ
    dof rx ry rz
    limits (-20.0 45.0)
           (-30.0 30.0)
           (-30.0 30.0)
  end
  begin
     id 13 
     name thorax
     direction -0.0165585 0.999826 -0.0085833   
     length 2.11039   
     axis 0 0 0   XYZ
    dof rx ry rz
    limits (-20.0 45.0)
           (-30.0 30.0)
           (-30.0 30.0)
  end
  begin
     id 14 
     name lowerneck
     direction -0.0130877 0.999911 0.00260353   
     length 1.73253   
     axis 0 0 0   XYZ
    dof rx ry rz
    limits (-20.0 45.0)
           (-30.0 30.0)
           (-30.0 30.0)
  end
  begin
     id 15 
     name upperneck
     direction -0.0348454 0.928205 -0.370435   
     length 1.66692   
     axis 0 0 0   XYZ
    dof rx ry rz
    limits (-20.0 45.0)
           (-30.0 30.0)
           (-30.0 30.0)
  end
  begin
     id 16
     name head
     direction -0.00807754 0.992494 -0.122026  
     length 1.72765  
     axis 0 0 0   XYZ
    dof rx ry rz
    limits (-20.0 45.0)
           (-30.0 30.0)
           (-30.0 30.0)
  end
  begin
     id 17 
     name lclavicle
     direction 0.987582 0.144023 0.0627671  
     length 3.49235  
     axis 0 0 0   XYZ
    dof ry rz
    limits (-20.0 10.0)
           (0.0 20.0)
  end
  begin
     id 18 
     name lhumerus
     direction 1 -4.48958e-011 -1.45183e-018   
     length 5.41917   
     axis 180 -30 -90   XYZ
    dof rx ry rz
    limits (-60.0 90.0)
           (-90.0 90.0)
           (-90.0 90.0)
  end
  begin
     id 19
     name lradius
     direction 1 -4.48999e-011 5.75106e-027   
     length 2.44373   
     axis 180 -30 -90   XYZ
    dof rx
    limits (-10.0 170.0)
  end
  begin
     id 20
     name lwrist
     direction 1 -4.48987e-011 1.53461e-026   
     length 1.22186   
     axis -1.09697e-014 90 90   XYZ
    dof ry
    limits (-180.0 0.0)
 end
  begin
     id 21 
     name lhand
     direction 1 -4.48881e-011 3.06923e-026   
     length 0.727502   
     axis -1.95843e-014 90 90   XYZ
    dof rx rz
    limits (-90.0 90.0)
           (-45.0 45.0)
  end
  begin
     id 22 
     name lfingers
     direction 1 -4.48907e-011 6.13845e-026   
     length 0.586531   
     axis -3.91686e-014 90 90   XYZ
    dof rx
    limits (0.0 90.0)
  end
  begin
     id 23
     name lthumb
     direction 0.707107 -6.3487e-011 0.707107   
     length 0.842145   
     axis -90 45 2.85299e-015   XYZ
    dof rx rz
    limits (-45.0 45.0)
           (-45.0 45.0)
  end
  begin
     id 24 
     name rclavicle
     direction -0.980998 0.169556 0.0943023   
     length 3.29272  
     axis 0 0 0   XYZ 
    dof ry rz
    limits (-10.0 20.0)
           (-20.0 0.0)
  end
  begin
     id 25 
     name rhumerus
     direction -1 -1.83355e-005 2.45537e-005  
     length 5.58976   
     axis 180 30 90   XYZ
    dof rx ry rz
    limits (-90.0 60.0)
           (-90.0 90.0)
           (-90.0 90.0)
  end
  begin
     id 26 
     name rradius
     direction -1 -4.48967e-011 5.97228e-027   
     length 2.4806   
     axis 180 30 90   XYZ
    dof rx
    limits (-10.0 170.0)
  end
  begin
     id 27 
     name rwrist
     direction -1 -4.48963e-011 1.53461e-026   
     length 1.2403   
     axis -1.09697e-014 -90 -90   XYZ
    dof ry
    limits (-180.0 0.0)
  end
  begin
     id 28
     name rhand
     direction -1 -4.48881e-011 3.06923e-026   
     length 0.816009   
     axis -1.95843e-014 -90 -90   XYZ
    dof rx rz
    limits (-90.0 90.0)
           (-45.0 45.0)
  end
  begin
     id 29
     name rfingers
     direction -1 -4.49018e-011 6.13845e-026   
     length 0.657887   
     axis -3.91686e-014 -90 -90   XYZ
    dof rx
    limits (0.0 90.0)
  end
  begin
     id 30
     name rthumb
     direction -0.707107 -6.34872e-011 0.707107   
     length 0.944599   
     axis -90 -45 -2.85299e-015   XYZ
    dof rx rz
    limits (-45.0 45.0)
           (-45.0 45.0)
  end
:hierarchy
  begin
    root lhipjoint rhipjoint lowerback
    lhipjoint lfemur
    lfemur ltibia
    ltibia lfoot
    lfoot ltoes
    rhipjoint rfemur
    rfemur rtibia
    rtibia rfoot
    rfoot rtoes
    lowerback upperback
    upperback thorax
    thorax lowerneck lclavicle rclavicle
    lowerneck upperneck
    upperneck head
    lclavicle lhumerus
    lhumerus lradius
    lradius lwrist
    lwrist lhand lthumb
    lhand lfingers
    rclavicle rhumerus
    rhumerus rradius
    rradius rwrist
    rwrist rhand rthumb
    rhand rfingers
  end

#!OML:ASF F:\VICON\USERDATA\INSTALL\rory3\rory3.ASF
:FULLY-SPECIFIED
:DEGREES
1
root -0.219723 16.1857 -15.0615 -153.022 0.242958 176.422
lowerback -20.3333 0.628867 -5.35004
upperback -9.21212 -0.0437907 -1.7342
thorax 1.31028 -0.738856 1.16003
lowerneck -9.29937 1.73266 -0.412038
upperneck 37.3278 -2.86072 1.67031
head 14.4107 -2.74148 -0.0857708
rclavicle -7.91411e-015 5.76476e-015
rhumerus -43.4496 -5.47548 -76.1223
rradius 13.9
rwrist 2.8722
rhand 13.7303 9.02797
rfingers 7.12502
rthumb 38.6552 -16.59
lclavicle -7.91411e-015 5.76476e-015
lhumerus -48.7175 17.3692 62.6791
lradius 24.2467
lwrist -1.91435
lhand 27.0259 21.6753
lfingers 7.12502
lthumb 51.0144 42.3487
rfemur -31.5651 -15.3848 27.6662
rtibia 60.8726
rfoot 29.7175 -29.0079
rtoes 29.5276
lfemur -45.9475 3.91898 -39.0769
ltibia 41.4703
lfoot -34.9823 22.8867
ltoes 6.43719
2
root -0.231414 16.1785 -15.0576 -153.049 -0.0611009 176.454
lowerback -20.2759 0.635358 -5.00671
upperback -9.22743 -0.095966 -1.79025
thorax 1.27633 -0.772888 0.896705
lowerneck -9.21149 1.72176 -0.32464
upperneck 37.2642 -2.85608 1.59076
head 14.3582 -2.73613 -0.130285
rclavicle 1.26415e-014 -2.62396e-014
rhumerus -43.4244 -6.09414 -75.6711
rradius 13.6185
rwrist 3.65918
rhand 13.9701 8.89878
rfingers 7.12502
rthumb 38.8813 -16.6551
lclavicle 1.26415e-014 -2.62396e-014
lhumerus -48.6729 17.3441 62.5862
lradius 24.1417
lwrist -2.00633
lhand 26.9871 21.7596
lfingers 7.12502
lthumb 50.979 42.4528
rfemur -31.2676 -15.9758 27.7278
rtibia 60.6913
rfoot 29.0734 -29.0367
rtoes 30.4058
lfemur -45.9597 3.95321 -39.0965
ltibia 41.6422
lfoot -34.9634 22.672
ltoes 6.17179
3
root -0.228942 16.1819 -15.0748 -153.002 -0.0551934 176.668
lowerback -20.4242 0.740441 -4.81375
upperback -9.31348 -0.0153852 -1.75064
thorax 1.25794 -0.747706 0.845987
lowerneck -9.02976 1.71335 -0.372215
upperneck 37.2846 -2.89192 1.59128
head 14.3275 -2.77199 -0.127139
rclavicle 7.93275e-015 -1.94809e-014
rhumerus -43.5952 -5.96475 -75.6802
rradius 13.5374
rwrist 3.53905
rhand 14.0222 8.85858
rfingers 7.12502
rthumb 38.9305 -16.6813
lclavicle 7.93275e-015 -1.94809e-014
lhumerus -48.7746 17.1626 62.6032
lradius 24.0868
lwrist -2.04728
lhand 26.8688 21.8069
lfingers 7.12502
lthumb 50.8712 42.5599
rfemur -31.2064 -15.8494 27.9447
rtibia 60.5338
rfoot 29.3643 -28.7584
rtoes 29.6243
lfemur -46.0921 4.06749 -38.8785
ltibia 41.8455
lfoot -35.0164 22.7245
ltoes 5.65487
4
root -0.255457 16.1909 -15.055 -153.241 -0.890653 177.492
lowerback -19.7263 0.882019 -3.33079
upperback -9.46509 -0.106 -1.60923
thorax 0.779102 -0.809811 0.149763
lowerneck -8.81806 1.72134 -0.260105
upperneck 37.2916 -2.88468 1.44756
head 14.279 -2.78529 -0.204194
rclavicle -4.06887e-015 1.41137e-014
rhumerus -43.8458 -5.4822 -75.9798
rradius 13.5895
rwrist 2.89447
rhand 14.0196 8.88901
rfingers 7.12502
rthumb 38.928 -16.6516
lclavicle -4.06887e-015 1.41137e-014
lhumerus -48.8337 17.2293 62.3824
lradius 23.7605
lwrist -2.38929
lhand 26.8561 21.7361
lfingers 7.12502
lthumb 50.8596 42.4955
rfemur -30.863 -16.6076 28.9401
rtibia 60.3272
rfoot 30.402 -27.5574
rtoes 27.47
lfemur -45.9658 3.81928 -37.8149
ltibia 42.0516
lfoot -34.981 22.7485
ltoes 5.49793
5
root -0.246794 16.188 -15.0517 -153.18 -0.627461 177.143
lowerback -19.6529 0.879892 -3.88591
upperback -9.72858 -0.101282 -1.69294
thorax 0.443144 -0.818603 0.379952
lowerneck -8.26884 1.8372 -0.273591
upperneck 37.4603 -2.87419 1.48801
head 14.2354 -2.8326 -0.189793
rclavicle -6.27414e-015 1.31198e-014
rhumerus -44.3351 -5.12355 -76.0945
rradius 13.585
rwrist 2.64237
rhand 13.9909 8.95879
rfingers 7.12502
rthumb 38.901 -16.5895
lclavicle -6.27414e-015 1.31198e-014
lhumerus -49.2209 17.0557 62.2243
lradius 23.7111
lwrist -2.40186
lhand 26.8643 21.9649
lfingers 7.12502
lthumb 50.867 42.7202
rfemur -30.9384 -16.4125 28.5389
rtibia 60.3076
rfoot 30.2111 -27.6997
rtoes 27.5716
lfemur -46.0855 3.82765 -38.2079
ltibia 42.126
lfoot -35.21 22.5624
ltoes 6.10895
6
root -0.252002 16.1897 -15.051 -153.239 -0.674244 177.212
lowerback -19.7285 0.854732 -3.71329
upperback -9.45619 -0.0794839 -1.67711
thorax 0.78096 -0.789074 0.299031
lowerneck -9.19463 1.87422 -0.615227
upperneck 37.8136 -2.86992 1.90244
head 14.6257 -2.79746 0.0261188
rclavicle -2.52829e-015 5.56597e-015
rhumerus -43.7487 -5.42743 -75.9931
rradius 13.378
rwrist 2.93254
rhand 14.0982 8.8152
rfingers 7.12502
rthumb 39.0021 -16.7042
lclavicle -2.52829e-015 5.56597e-015
lhumerus -48.7068 17.1743 62.4963
lradius 23.8788
lwrist -2.19216
lhand 26.8162 22.4132
lfingers 7.12502
lthumb 50.8232 43.1927
rfemur -30.8021 -16.5622 28.5647
rtibia 60.208
rfoot 30.6199 -27.0559
rtoes 26.1073
lfemur -46.0419 3.77872 -38.0954
ltibia 42.2224
lfoot -35.4923 22.2473
ltoes 6.80982
7
root -0.25887 16.1908 -15.0509 -153.235 -0.793546 177.381
lowerback -19.6624 0.900826 -3.42679
upperback -9.71139 -0.141154 -1.61327
thorax 0.477961 -0.847259 0.197001
lowerneck -8.49897 2.02617 -0.806621
upperneck 37.875 -2.81436 2.10407
head 14.4994 -2.8325 0.14871
rclavicle -3.85145e-016 4.96962e-015
rhumerus -44.2163 -5.2163 -75.8752
rradius 13.3111
rwrist 3.11168
rhand 14.2785 8.78459
rfingers 7.12502
rthumb 39.1721 -16.6859
lclavicle -3.85145e-016 4.96962e-015
lhumerus -49.3167 16.758 62.591
lradius 24.1867
lwrist -1.75042
lhand 26.7731 22.6819
lfingers 7.12502
lthumb 50.7838 43.4831
rfemur -30.7837 -16.756 28.7676
rtibia 60.1569
rfoot 31.5156 -25.9865
rtoes 23.6387
lfemur -46.0217 3.83687 -37.9663
ltibia 42.2038
lfoot -35.3257 22.3288
ltoes 6.6219
